<?xml version="1.0" standalone="no"?>
<!DOCTYPE svg PUBLIC "-//W3C//DTD SVG 20010904//EN"
 "http://www.w3.org/TR/2001/REC-SVG-20010904/DTD/svg10.dtd">
<svg version="1.0" xmlns="http://www.w3.org/2000/svg"
 width="685.000000pt" height="685.000000pt" viewBox="0 0 685.000000 685.000000"
 preserveAspectRatio="xMidYMid meet">
<metadata>
Created by potrace 1.14, written by Peter Selinger 2001-2017
</metadata>
<g transform="translate(0.000000,685.000000) scale(0.100000,-0.100000)"
fill="#000000" stroke="none">
<path d="M0 3425 l0 -3425 3425 0 3425 0 0 3425 0 3425 -3425 0 -3425 0 0
-3425z m3816 1499 c383 -120 417 -131 674 -210 85 -26 159 -50 163 -54 4 -4
-225 -100 -509 -214 -486 -194 -518 -206 -552 -196 -89 24 -236 6 -325 -40
-32 -17 -61 -23 -124 -24 -71 -1 -85 -4 -107 -25 -31 -29 -33 -63 -6 -102 20
-27 20 -30 5 -60 -9 -17 -23 -53 -31 -78 -11 -39 -24 -54 -77 -94 -211 -154
-388 -440 -428 -687 -5 -36 -14 -69 -18 -73 -5 -5 -24 18 -42 50 -188 326
-309 830 -309 1289 0 133 3 160 19 192 22 44 34 51 161 90 52 17 145 46 205
65 61 20 171 54 245 78 74 23 252 79 395 124 143 46 267 83 276 84 9 1 183
-51 385 -115z m920 -327 c15 -27 16 -58 11 -232 -20 -698 -201 -1209 -560
-1582 -172 -178 -328 -289 -583 -414 l-161 -79 -100 43 c-128 56 -246 120
-375 206 -97 64 -223 168 -241 198 -5 7 -18 59 -29 116 -42 206 -23 420 56
614 41 99 122 233 183 301 l42 47 1 -43 c1 -161 238 -274 507 -242 167 20 329
87 421 174 116 109 116 177 1 348 -38 56 -39 58 -27 102 10 38 9 48 -5 70 -10
14 -26 26 -37 26 -40 0 -26 17 33 39 72 27 202 77 299 116 37 14 72 24 78 20
5 -3 -1 -29 -17 -63 -48 -105 -65 -180 -66 -287 -1 -67 4 -118 16 -155 18 -60
90 -180 107 -180 6 0 37 21 68 46 69 56 131 88 214 110 34 10 66 20 71 24 4 3
-2 41 -13 85 -13 51 -20 111 -20 171 0 96 10 139 75 309 19 50 25 82 22 112
-5 48 5 47 29 0z m-1141 -388 c22 -6 47 -17 55 -25 14 -11 25 -10 75 11 70 29
98 31 116 9 10 -12 10 -24 1 -59 -12 -44 -11 -45 32 -107 40 -57 81 -128 74
-128 -26 1 -140 47 -171 69 -57 39 -105 51 -218 53 -100 2 -118 -4 -204 -62
-22 -15 -51 -31 -65 -35 -46 -14 -183 -86 -221 -116 -20 -16 -40 -29 -43 -29
-14 0 -4 49 30 150 l37 107 -22 30 c-13 17 -19 36 -15 46 10 26 73 39 132 26
45 -9 53 -8 70 9 17 17 79 42 137 55 40 9 161 7 200 -4z m15 -229 c39 -21 137
-116 128 -126 -4 -3 -35 16 -70 43 -81 63 -124 83 -185 84 l-48 1 40 13 c45
15 84 11 135 -15z m113 -1 c29 -15 66 -49 78 -72 9 -16 -4 -8 -127 70 -18 11
-18 12 4 12 13 1 33 -4 45 -10z m-295 -69 c23 -10 70 -39 105 -63 138 -99 246
-130 300 -87 21 17 27 30 27 60 0 21 -5 51 -10 65 -10 26 -9 27 17 20 100 -25
113 -50 64 -126 -53 -85 -172 -153 -330 -190 -110 -27 -326 -23 -406 5 -68 25
-129 68 -155 111 -26 41 -31 34 70 104 65 45 126 77 195 102 63 23 71 23 123
-1z m514 -1682 c4 -39 31 -46 36 -10 5 34 26 21 30 -17 4 -40 -21 -71 -57 -71
-34 0 -48 10 -60 43 -11 29 -1 63 23 79 19 13 25 9 28 -24z m-69 -256 c-3 -12
-9 -22 -14 -22 -14 0 -11 38 4 43 16 6 17 5 10 -21z"/>
<path d="M3732 4169 c-42 -16 -112 -72 -112 -88 0 -11 10 -16 30 -17 94 -5
141 -5 149 0 5 4 8 27 5 51 -2 31 0 45 9 45 8 0 7 4 -3 10 -18 12 -48 12 -78
-1z m43 -54 c0 -16 -8 -21 -42 -23 -48 -3 -55 8 -20 33 29 21 62 16 62 -10z"/>
<path d="M3109 4100 c-13 -10 -19 -19 -12 -20 6 0 16 -19 20 -42 6 -28 15 -44
26 -46 9 -2 51 12 93 31 l76 35 -22 20 c-13 12 -48 25 -84 31 -78 14 -70 14
-97 -9z m123 -26 c16 -10 7 -22 -23 -33 -43 -15 -47 -14 -59 9 -16 31 -3 43
39 35 20 -4 39 -9 43 -11z"/>
<path d="M3522 4083 c2 -10 14 -19 26 -21 21 -3 22 -1 12 17 -13 26 -43 28
-38 4z"/>
<path d="M3410 4071 c-13 -26 -13 -31 5 -31 16 0 38 34 28 44 -11 11 -22 6
-33 -13z"/>
</g>
</svg>
